<?xml version="1.0" encoding="UTF-8"?>
<svg width="171px" height="89px" viewBox="0 0 171 89" version="1.1" xmlns="http://www.w3.org/2000/svg" xmlns:xlink="http://www.w3.org/1999/xlink">
    <!-- Generator: Sketch 52.2 (67145) - http://www.bohemiancoding.com/sketch -->
    <title>logo-signin</title>
    <desc>Created with Sketch.</desc>
    <g id="Web---Desktop" stroke="none" stroke-width="1" fill="none" fill-rule="evenodd">
        <g id="Sign-In---Empty" transform="translate(-643.000000, -245.000000)">
            <g id="logo-signin" transform="translate(643.000000, 245.000000)">
                <text id="TRACKBODY" font-family="HiraKakuStd-W8, Hiragino Kaku Gothic Std" font-size="21" font-weight="600" letter-spacing="2.34">
                    <tspan x="0" y="73" fill="#FFFFFF">T</tspan>
                    <tspan x="18.573" y="73" letter-spacing="1.76" fill="#FFFFFF">R</tspan>
                    <tspan x="37.595" y="73" letter-spacing="1.47" fill="#FFFFFF">A</tspan>
                    <tspan x="57.335" y="73" letter-spacing="2.05" fill="#FFFFFF">C</tspan>
                    <tspan x="77.13" y="73" fill="#FFFFFF">K</tspan>
                    <tspan x="97.53" y="73" letter-spacing="1.76" fill="#196CFF">B</tspan>
                    <tspan x="116.027" y="73" letter-spacing="1.18" fill="#196CFF">O</tspan>
                    <tspan x="135.729" y="73" letter-spacing="1.47" fill="#196CFF">D</tspan>
                    <tspan x="153.915" y="73" letter-spacing="2.05" fill="#196CFF">Y</tspan>
                </text>
                <g id="LOGO-1" transform="translate(65.000000, 0.000000)" fill-rule="nonzero">
                    <path d="M6.47058824,12.9411765 C2.89698103,12.9411765 0,10.0441954 0,6.47058824 C0,2.89698103 2.89698103,0 6.47058824,0 C10.0441954,0 12.9411765,2.89698103 12.9411765,6.47058824 C12.9411765,10.0441954 10.0441954,12.9411765 6.47058824,12.9411765 Z M22,12.9411765 C18.4263928,12.9411765 15.5294118,10.0441954 15.5294118,6.47058824 C15.5294118,2.89698103 18.4263928,0 22,0 C25.5736072,0 28.4705882,2.89698103 28.4705882,6.47058824 C28.4705882,10.0441954 25.5736072,12.9411765 22,12.9411765 Z M22,28.4705882 C18.4263928,28.4705882 15.5294118,25.5736072 15.5294118,22 C15.5294118,18.4263928 18.4263928,15.5294118 22,15.5294118 C25.5736072,15.5294118 28.4705882,18.4263928 28.4705882,22 C28.4705882,25.5736072 25.5736072,28.4705882 22,28.4705882 Z M22,44 C18.4263928,44 15.5294118,41.103019 15.5294118,37.5294118 C15.5294118,33.9558046 18.4263928,31.0588235 22,31.0588235 C25.5736072,31.0588235 28.4705882,33.9558046 28.4705882,37.5294118 C28.4705882,41.103019 25.5736072,44 22,44 Z M37.5294118,12.9411765 C33.9558046,12.9411765 31.0588235,10.0441954 31.0588235,6.47058824 C31.0588235,2.89698103 33.9558046,0 37.5294118,0 C41.103019,0 44,2.89698103 44,6.47058824 C44,10.0441954 41.103019,12.9411765 37.5294118,12.9411765 Z" id="Combined-Shape" fill="#FFFFFF"></path>
                    <path d="M6.47058824,27.4545455 C9.329474,27.4545455 11.6470588,25.1752678 11.6470588,22.3636364 C11.6470588,19.5520049 9.329474,17.2727273 6.47058824,17.2727273 C3.61170247,17.2727273 1.29411765,19.5520049 1.29411765,22.3636364 C1.29411765,25.1752678 3.61170247,27.4545455 6.47058824,27.4545455 Z M6.47058824,28.7272727 C2.89698103,28.7272727 0,25.8781757 0,22.3636364 C0,18.849097 2.89698103,16 6.47058824,16 C10.0441954,16 12.9411765,18.849097 12.9411765,22.3636364 C12.9411765,25.8781757 10.0441954,28.7272727 6.47058824,28.7272727 Z M6.47058824,42.7272727 C9.329474,42.7272727 11.6470588,40.4479951 11.6470588,37.6363636 C11.6470588,34.8247322 9.329474,32.5454545 6.47058824,32.5454545 C3.61170247,32.5454545 1.29411765,34.8247322 1.29411765,37.6363636 C1.29411765,40.4479951 3.61170247,42.7272727 6.47058824,42.7272727 Z M6.47058824,44 C2.89698103,44 0,41.150903 0,37.6363636 C0,34.1218243 2.89698103,31.2727273 6.47058824,31.2727273 C10.0441954,31.2727273 12.9411765,34.1218243 12.9411765,37.6363636 C12.9411765,41.150903 10.0441954,44 6.47058824,44 Z M37.5294118,27.4545455 C40.3882975,27.4545455 42.7058824,25.1752678 42.7058824,22.3636364 C42.7058824,19.5520049 40.3882975,17.2727273 37.5294118,17.2727273 C34.670526,17.2727273 32.3529412,19.5520049 32.3529412,22.3636364 C32.3529412,25.1752678 34.670526,27.4545455 37.5294118,27.4545455 Z M37.5294118,28.7272727 C33.9558046,28.7272727 31.0588235,25.8781757 31.0588235,22.3636364 C31.0588235,18.849097 33.9558046,16 37.5294118,16 C41.103019,16 44,18.849097 44,22.3636364 C44,25.8781757 41.103019,28.7272727 37.5294118,28.7272727 Z M37.5294118,42.7272727 C40.3882975,42.7272727 42.7058824,40.4479951 42.7058824,37.6363636 C42.7058824,34.8247322 40.3882975,32.5454545 37.5294118,32.5454545 C34.670526,32.5454545 32.3529412,34.8247322 32.3529412,37.6363636 C32.3529412,40.4479951 34.670526,42.7272727 37.5294118,42.7272727 Z M37.5294118,44 C33.9558046,44 31.0588235,41.150903 31.0588235,37.6363636 C31.0588235,34.1218243 33.9558046,31.2727273 37.5294118,31.2727273 C41.103019,31.2727273 44,34.1218243 44,37.6363636 C44,41.150903 41.103019,44 37.5294118,44 Z" id="Combined-Shape" fill="#196CFF"></path>
                </g>
                <text id="WORKOUT-TRACKER" opacity="0.599999964" font-family="HiraKakuStd-W8, Hiragino Kaku Gothic Std" font-size="10" font-weight="600" fill="#FFFFFF">
                    <tspan x="26" y="88">WORKOUT TRACKER</tspan>
                </text>
            </g>
        </g>
    </g>
</svg>